<svg width="727" height="166" viewBox="0 0 727 166" fill="none" xmlns="http://www.w3.org/2000/svg">
<path fill-rule="evenodd" clip-rule="evenodd" d="M63.7354 1.11345C43.4027 2.7087 33.4559 6.63992 23.9195 16.8462C14.0264 27.4371 9.4647 39.6038 2.86401 73.0152C-1.10948 93.1241 -0.967005 103.313 3.40775 111.898C6.72639 118.413 11.0907 121.716 20.6284 124.932C30.6143 128.298 70.7478 128.341 83.1323 124.998C98.0694 120.964 107.858 111.329 112.711 95.8801C114.671 89.6456 114.757 88.265 113.244 87.3071C111.064 85.9238 88.52 85.772 86.4366 87.1251C85.6222 87.6538 83.8577 90.3903 82.5154 93.2065C78.4138 101.807 74.5527 103.723 60.2547 104.249C35.2505 105.168 31.0587 103.004 31.0587 89.1811C31.0587 79.4446 39.0502 41.0839 42.5832 33.8601C45.7789 27.3259 52.7351 24.2453 65.8476 23.5557C80.4698 22.7875 88.1632 24.0909 92.0661 27.9986C94.9795 30.9156 95.1625 31.8264 94.3456 39.3446C93.8568 43.8399 92.8739 48.2553 92.1602 49.1544C91.227 50.3309 85.421 50.7902 71.468 50.7902H52.0725L50.7876 55.6977C47.75 67.2963 47.6768 68.0711 49.508 69.2318C50.504 69.8639 66.1849 70.3887 84.3544 70.4005L117.391 70.4201L118.61 67.206C120.726 61.6324 123.853 41.2972 123.849 33.1233C123.844 19.0408 119.647 10.2283 110.79 5.7003C102.418 1.42098 83.4212 -0.430773 63.7354 1.11345ZM209.756 1.17888C199.996 2.60924 192.153 6.13477 185.653 12.0133C180.041 17.0909 178.207 17.0752 180.148 11.9649C180.821 10.1929 181.371 7.30865 181.371 5.55635C181.371 2.375 181.349 2.36976 167.101 2.36976H152.83L150.148 14.4749C148.674 21.132 145.377 36.5912 142.822 48.8272C140.268 61.0632 137.032 76.3745 135.632 82.8524C127.51 120.412 118.632 162.975 118.632 164.354C118.632 166.16 144.236 166.669 146.989 164.917C148.754 163.794 149.428 161.029 156.639 125.384C159.478 111.348 162.355 97.5094 163.032 94.6303C163.709 91.7513 166.412 79.6998 169.037 67.8486C176.257 35.2616 179.627 29.4093 193.552 25.2687C206.334 21.4684 220.99 23.3567 225.753 29.4185C229.432 34.1035 229.281 45.4613 225.288 64.1987C217.933 98.7094 210.566 106.272 186.443 104.083C180.097 103.507 178.527 103.767 177.644 105.548C175.929 109.006 173.279 122.612 174.071 123.895C176.474 127.787 197.38 129.11 210.78 126.216C237.834 120.377 248.331 104.207 257.132 54.8143C263.693 17.9912 257.453 4.67169 231.907 0.972109C222.655 -0.367959 220.157 -0.344402 209.756 1.17888ZM457.163 0.633168C428.338 3.0712 415.368 10.401 406.778 29.1096C398.954 46.1497 391.119 84.1336 392.126 100.154C393.391 120.309 405.943 127.843 438.443 127.955C474.935 128.081 493.023 120.237 502.684 100.099C507.396 90.2777 513.655 65.8516 516.6 45.7977C518.902 30.1317 518.267 22.37 514.012 14.1333C511.58 9.42213 503.069 4.41651 494.414 2.6027C487.556 1.16579 464.979 -0.0277059 457.163 0.633168ZM600.652 1.02053C592.341 2.53073 581.62 7.59262 575.689 12.8063L570.816 17.0896L571.686 9.68386L572.556 2.27685L558.448 2.65112L544.343 3.02409L542.658 10.2217C541.731 14.1804 539.786 23.0139 538.334 29.8516C535.619 42.6412 527.377 81.6994 524.941 93.3217C521.874 107.943 521.146 111.239 519.745 116.832C517.365 126.329 517.872 126.692 533.484 126.692H547.148L548.446 122.439C549.16 120.101 550.363 115.242 551.118 111.643C559.109 73.5818 565.095 47.6363 567.176 42.0353C571.873 29.3936 584.293 22.5257 600.582 23.5635C607.937 24.0333 609.568 24.6131 612.226 27.708C614.154 29.9524 615.318 32.9662 615.318 35.717C615.318 40.6363 610.823 63.636 602.141 103.137C600.481 110.694 599.089 118.939 599.05 121.458L598.979 126.038L612.181 126.409C621.78 126.678 625.766 126.317 626.788 125.083C627.562 124.148 629.978 114.854 632.155 104.427C642.492 54.9413 644.324 47.2058 647.207 40.898C652.497 29.3295 662.975 23.3646 678.057 23.3332C687.689 23.3136 693.079 26.5643 694.127 33.0291C695.092 38.9808 694.344 43.6318 686.646 79.5807C684.873 87.858 681.981 101.403 680.216 109.68C678.453 117.957 677.279 125.172 677.61 125.711C677.941 126.25 684.28 126.692 691.699 126.692C706.483 126.692 707.257 126.333 708.544 118.841C708.977 116.321 710.547 108.666 712.031 101.828C713.518 94.9902 716.157 82.6234 717.898 74.3461C719.639 66.0688 722.403 53.4075 724.043 46.2099C729.791 20.975 727.486 11.1666 714.24 4.48325C707.326 0.995668 705.667 0.711685 692.39 0.747018C673.622 0.798056 663.367 4.11159 653.956 13.1662C650.403 16.5844 647.094 19.3823 646.601 19.3823C646.11 19.3823 645.363 17.6601 644.942 15.5571C643.271 7.18825 632.729 1.47856 617.208 0.532401C611.495 0.184298 604.046 0.404154 600.652 1.02053ZM313.238 2.95997C289.033 9.64199 278.111 25.3027 270.294 64.5311C269.434 68.8497 268.189 74.8525 267.531 77.8703C265.677 86.3452 266.062 106.099 268.178 111.156C273.041 122.78 286.198 128.001 310.627 128.001C344.095 128.001 359.943 122.271 369.177 106.827C373.96 98.8272 379.341 83.0395 378.251 80.1971C377.679 78.7026 374.945 78.276 366.035 78.2904C349.831 78.3152 349.697 78.382 346.953 87.7036C342.737 102.028 335.783 105.401 312.858 104.242C302.016 103.694 297.264 100.865 295.991 94.1998C294.982 88.9154 301.483 55.2161 306.301 40.7541C309.076 32.4258 314.835 26.5302 321.946 24.7374C333.189 21.9028 351.799 23.7716 355.383 28.0954C356.239 29.1292 356.993 33.3327 357.056 37.4379L357.172 44.9012L371.81 45.2703L386.446 45.6406L387.31 41.0289C388.948 32.2923 387.428 17.2165 384.517 13.3141C377.164 3.45202 368.402 1.05718 340.18 1.19328C327.61 1.25478 316.862 1.95884 313.238 2.95997ZM477.121 24.8774C483.354 26.7475 487.213 32.219 487.22 39.1981C487.222 41.8193 486.007 50.0639 484.518 57.5193C476.21 99.1164 471.45 104.769 444.811 104.664C432.215 104.614 426.329 102.122 423.651 95.706C421.268 89.995 422.319 80.8554 428.062 57.3335C433.562 34.8128 437.451 28.6202 448.2 25.2622C455.376 23.0204 470.271 22.8228 477.121 24.8774Z" fill="white"/>
</svg>
