<svg width="841" height="210" viewBox="0 0 841 210" fill="none" xmlns="http://www.w3.org/2000/svg">
<path fill-rule="evenodd" clip-rule="evenodd" d="M48.6424 2.28978C36.8084 7.15578 24.4394 19.7728 19.9984 31.5108C16.6704 40.3048 16.2594 51.4548 18.8824 61.8258C21.2504 71.1918 25.2314 80.3388 30.0834 87.5628C33.5814 92.7718 40.9494 100.833 42.2114 100.833C42.6474 100.833 43.0034 99.3528 43.0034 97.5428C43.0034 92.0408 45.8034 82.7828 50.1534 73.8978C56.1454 61.6618 67.0794 50.8318 79.8554 44.4808C84.9984 41.9248 89.8754 39.8328 90.6934 39.8328C92.3954 39.8328 91.9654 35.3248 89.3574 25.8328C83.7174 5.30378 66.0954 -4.88522 48.6424 2.28978ZM163.39 9.92178C156.014 11.1558 144.506 15.4898 137.003 19.8608C130.139 23.8598 116.503 34.8088 116.503 36.3218C116.503 36.8128 119.653 37.7898 123.503 38.4928C133.084 40.2418 146.935 47.2578 154.712 54.3028C161.814 60.7348 169.841 72.1608 172.548 79.6888C173.566 82.5178 174.979 84.8328 175.689 84.8328C176.398 84.8328 181.186 83.4848 186.328 81.8378C202.4 76.6898 212.835 68.2318 217.079 56.9118C219.807 49.6358 219.511 35.4778 216.503 29.3328C209.013 14.0338 186.97 5.97778 163.39 9.92178ZM110.121 44.6668C107.772 47.9658 104.06 55.7088 104.025 57.3828C104.012 58.0078 106.824 58.4758 110.969 58.5398C120.084 58.6808 129.465 61.8538 136.754 67.2618C143.731 72.4378 144.868 73.6958 149.428 81.2738L153.003 87.2148L158.253 86.9918C161.141 86.8678 164.778 86.5128 166.337 86.2018C168.822 85.7068 169.09 85.3108 168.518 82.9848C167.101 77.2328 160.385 67.0358 153.595 60.3268C143.495 50.3488 131.153 44.2848 116.888 42.2908C112.569 41.6878 112.134 41.8398 110.121 44.6668ZM83.5034 47.6988C69.8374 54.2218 59.2864 64.7958 52.8424 78.4268C49.5724 85.3438 46.7574 97.4638 47.2034 102.706C47.4634 105.761 48.1064 106.537 52.0484 108.56C54.5484 109.843 58.2604 111.163 60.2984 111.493L64.0034 112.095V104.553C64.0034 87.4068 73.3664 71.7538 88.3904 63.7838L93.0034 61.3358V53.0848C93.0034 43.3728 92.8034 43.2588 83.5034 47.6988ZM289.653 58.8818C278.082 60.8238 269.029 68.0678 264.822 78.7538C262.848 83.7678 262.584 86.6008 262.216 106.743C261.648 137.757 263.563 145.874 273.511 154.631C282.273 162.344 281.499 162.244 335.253 162.604L383.003 162.924V155.92V148.917L342.253 148.625C303.59 148.348 301.329 148.231 298.108 146.333C296.24 145.233 293.765 143.063 292.608 141.512C290.606 138.828 290.49 137.366 290.244 111.512C289.991 84.8788 290.031 84.2548 292.244 80.4368C296.69 72.7688 296.269 72.8328 342.237 72.8328H383.003V65.3328V57.8328L338.753 57.9508C314.416 58.0148 292.321 58.4338 289.653 58.8818ZM394.427 59.1698C394.134 59.9328 394.032 63.2068 394.199 66.4448L394.503 72.3328L433.753 72.5948C455.34 72.7378 473.003 73.1138 473.003 73.4278C473.003 73.7428 465.916 80.8018 457.253 89.1168C448.59 97.4308 430.59 115.044 417.253 128.256C394.471 150.824 393.003 152.498 393.003 155.901C393.003 163.171 390.138 162.833 451.832 162.833H507.003V155.833V148.833H468.062C446.644 148.833 428.913 148.495 428.658 148.083C428.404 147.671 438.165 137.687 450.349 125.897C506.175 71.8798 509.003 68.9658 509.003 65.4618C509.003 63.6758 508.364 61.3418 507.584 60.2738C506.213 58.3988 504.281 58.3238 450.562 58.0578C403.897 57.8278 394.874 58.0068 394.427 59.1698ZM513.003 58.2948C513.003 59.9928 568.68 158.737 570.678 160.583C572.714 162.463 574.248 162.833 580.003 162.833C585.737 162.833 587.312 162.456 589.398 160.583C591.441 158.75 644.473 64.9848 646.595 59.4548C647.148 58.0128 645.837 57.8328 634.75 57.8328H622.283L601.548 96.3328C590.144 117.508 580.517 134.833 580.155 134.833C579.793 134.833 570.195 117.62 558.827 96.5828L538.157 58.3328L525.58 58.0528C518.663 57.8988 513.003 58.0078 513.003 58.2948ZM655.003 110.299V162.833H666.012H677.021L676.762 110.583L676.503 58.3328L665.753 58.0488L655.003 57.7648V110.299ZM692.003 65.3328V72.8328L731.753 72.8588L771.503 72.8838L746.003 97.5618C694.281 147.617 691.012 150.989 690.367 154.97C689.901 157.845 690.221 159.051 691.89 160.72C693.99 162.82 694.351 162.833 749.503 162.833H805.003V155.833V148.833H765.503C743.201 148.833 726.003 148.447 726.003 147.946C726.003 147.459 743.83 129.802 765.618 108.709C787.406 87.6158 805.631 69.3108 806.118 68.0308C807.495 64.4088 807.196 62.9348 804.548 60.2878L802.094 57.8328H747.048H692.003V65.3328ZM813.67 58.4998C812.402 59.7668 813.011 60.8328 815.003 60.8328C816.781 60.8328 817.003 61.4998 817.003 66.8328C817.003 71.4998 817.336 72.8328 818.503 72.8328C819.67 72.8328 820.003 71.4998 820.003 66.8328C820.003 61.4998 820.225 60.8328 822.003 60.8328C823.114 60.8328 824.003 60.1658 824.003 59.3328C824.003 58.2068 822.799 57.8328 819.17 57.8328C816.511 57.8328 814.036 58.1328 813.67 58.4998ZM825.446 59.1208C825.143 59.9108 825.032 63.1708 825.199 66.3658C825.584 73.7138 827.758 75.0068 828.196 68.1468L828.503 63.3328L830.066 67.7708C830.925 70.2108 832.117 72.3708 832.715 72.5698C833.314 72.7698 834.487 70.9978 835.324 68.6328L836.845 64.3328L836.924 68.5828C836.981 71.6588 837.417 72.8328 838.503 72.8328C839.703 72.8328 840.003 71.3328 840.003 65.3328C840.003 59.1518 839.724 57.8328 838.417 57.8328C837.459 57.8328 835.983 59.8398 834.691 62.8978L832.552 67.9618L830.942 63.1478C829.333 58.3378 826.534 56.2868 825.446 59.1208ZM105.165 63.5088C103.194 63.9188 102.931 64.4138 103.492 66.6638C105.567 74.9878 110.811 80.4908 119.918 83.9008C125.397 85.9518 145.422 88.7468 146.552 87.6178C148.216 85.9538 139.769 75.1438 133.358 70.7328C125.689 65.4568 112.301 62.0258 105.165 63.5088ZM87.2854 69.8028C76.4914 76.3838 68.0034 92.0098 68.0034 105.3C68.0034 110.814 68.7564 111.877 71.8344 110.707C79.5804 107.762 84.9874 100.377 88.6464 87.7428C91.1714 79.0268 92.7104 67.8308 91.3824 67.8368C90.8994 67.8388 89.0554 68.7228 87.2854 69.8028ZM156.003 105.269C156.003 118.649 150.729 130.395 140.647 139.467C137.818 142.013 133.591 145.027 131.253 146.164L127.003 148.232V156.6C127.003 166.139 126.515 165.893 136.503 161.382C155.543 152.782 169.886 132.305 171.675 111.17L172.282 104.008L167.392 101.566C164.703 100.223 161.04 98.8448 159.253 98.5028L156.003 97.8828V105.269ZM144.987 100.685C140.49 103.076 135.704 109.342 133.137 116.205C130.684 122.76 127.72 136.88 128.175 139.842C128.484 141.851 128.832 141.741 134.088 137.968C140.204 133.578 146.051 125.844 148.555 118.833C149.439 116.358 150.416 110.846 150.726 106.583C151.359 97.8618 150.998 97.4898 144.987 100.685ZM299.003 109.833V116.855L340.253 116.594L381.503 116.333V109.833V103.333L340.253 103.072L299.003 102.811V109.833ZM177.003 112.123C177.003 117.636 174.2 126.889 169.822 135.833C163.968 147.79 152.071 159.663 139.966 165.627C135.27 167.94 130.63 169.833 129.654 169.833C128.108 169.833 127.969 170.441 128.573 174.583C130.856 190.249 138.109 201.978 148.503 206.814C158.223 211.336 167.963 209.871 179.285 202.182C187.771 196.419 193.053 190.368 197.674 181.112C200.838 174.773 201.335 172.756 201.743 164.612C202.325 152.984 200.498 144.705 194.632 132.379C190.647 124.008 179.839 108.833 177.861 108.833C177.389 108.833 177.003 110.313 177.003 112.123ZM56.0814 122.746C53.0984 123.069 50.4994 123.819 50.3044 124.414C50.1094 125.008 51.8104 129.212 54.0844 133.756C63.0444 151.657 82.2734 165.18 101.928 167.404L107.818 168.07L110.371 164.202C112.438 161.071 116.003 152.845 116.003 151.207C116.003 151.001 112.839 150.833 108.971 150.833C92.6214 150.833 76.8544 141.171 69.3974 126.583C66.7414 121.387 67.2584 121.536 56.0814 122.746ZM72.0034 122.263C72.0034 122.665 73.6464 125.47 75.6554 128.496C79.9234 134.927 87.7554 141.171 95.0094 143.927C100.797 146.126 110.554 147.413 114.303 146.472C116.534 145.912 116.718 145.506 116.058 142.59C114.054 133.742 108.145 128.193 97.0944 124.779C90.5034 122.744 72.0034 120.888 72.0034 122.263ZM35.2724 126.758C20.2974 131.041 8.69038 139.456 3.44338 149.833C0.240384 156.166 -0.991616 168.458 0.881384 175.392C3.51338 185.137 13.8064 194.822 25.3544 198.419C32.3894 200.611 48.1684 201.358 56.5614 199.896C71.1654 197.353 87.3724 188.877 98.9814 177.712L104.459 172.443L97.9814 171.216C83.4474 168.463 73.1624 163.003 62.4374 152.347C56.2174 146.167 53.4134 142.418 50.1874 135.967C47.8864 131.366 46.0034 126.979 46.0034 126.217C46.0034 124.404 42.9664 124.557 35.2724 126.758Z" fill="white"/>
</svg>
