<svg width="1030" height="131" viewBox="0 0 1030 131" fill="none" xmlns="http://www.w3.org/2000/svg">
<path fill-rule="evenodd" clip-rule="evenodd" d="M812.004 1.19509C797.328 4.47309 783.308 12.7051 773.216 23.9701C759.926 38.8041 741.43 85.6631 742.967 100.605C744.041 111.04 751.579 121.856 761.09 126.606C767.991 130.052 777.176 131.074 795.14 130.395C813.486 129.7 819.484 128.399 831.64 122.475C838.547 119.109 841.86 116.621 849.315 109.2C857.965 100.59 858.893 99.2421 865.539 85.6531C875.322 65.6451 881.719 46.0491 882.393 34.0231C882.866 25.5681 882.695 24.3721 880.322 19.5231C876.849 12.4271 870.995 6.55009 863.953 3.09309C858.204 0.270089 857.918 0.236085 838.14 0.0310846C824.165 -0.112915 816.291 0.238086 812.004 1.19509ZM23.0154 64.8361C7.42639 106.228 -0.700612 129.054 0.0473883 129.341C0.684388 129.585 9.47939 129.662 19.5924 129.511L37.9794 129.238L49.5594 98.4921L61.1404 67.7461L84.9974 67.7421C107.311 67.7381 108.81 67.8511 108.176 69.4881C107.673 70.7841 93.1504 109.242 85.8574 128.592C85.4374 129.706 88.3364 129.878 102.243 129.562C119.932 129.161 124.272 128.162 126.513 123.975C127.863 121.453 172.64 2.68509 172.64 1.62709C172.64 1.13809 163.955 0.738085 153.339 0.738085H134.039L124.66 25.7381L115.281 50.7381H91.9614C72.8964 50.7381 68.6404 50.4881 68.6404 49.3701C68.6404 48.6171 72.6404 37.3671 77.5284 24.3701L86.4164 0.738085L66.7784 0.756083L47.1404 0.775088L23.0154 64.8361ZM175.115 63.9881C162.013 98.7761 151.098 127.801 150.86 128.488C150.522 129.46 154.768 129.738 169.961 129.738H189.496L191.462 124.488C192.543 121.601 203.208 93.3631 215.162 61.7381C227.117 30.1131 237.117 3.45109 237.385 2.48809C237.838 0.865085 236.465 0.738085 218.405 0.738085H198.938L175.115 63.9881ZM264.542 3.48809C248.4 45.8281 217.64 127.953 217.64 128.711C217.64 129.378 224.326 129.738 236.696 129.738H255.752L257.582 125.488C258.588 123.15 262.868 111.974 267.093 100.651L274.775 80.0641L279.792 76.3191C282.551 74.2591 284.951 72.7231 285.125 72.9061C285.298 73.0881 291.374 84.4881 298.627 98.2381C305.879 111.988 313.131 124.475 314.742 125.988L317.672 128.738H336.656C347.097 128.738 355.64 128.474 355.64 128.15C355.64 127.827 346.806 110.84 336.008 90.4001C325.21 69.9611 316.015 52.5351 315.574 51.6771C314.943 50.4481 321.725 44.9061 347.389 25.6771L380.006 1.23809L365.695 0.960085L351.385 0.682086L320.262 24.0111C303.145 36.8421 288.579 47.6801 287.894 48.0961C287.192 48.5211 287.911 45.4461 289.544 41.0441C292.047 34.2951 302.183 7.57509 304.17 2.48809C304.807 0.858085 303.513 0.738085 285.222 0.738085H265.59L264.542 3.48809ZM393.64 1.30008C393.64 1.63408 395.89 29.7761 398.64 63.8371C401.39 97.8991 403.64 126.436 403.64 127.253C403.64 128.489 405.792 128.738 416.505 128.738C427.926 128.738 429.661 128.51 431.955 126.705C433.376 125.587 451.281 100.274 471.743 70.4551C492.205 40.6361 511.395 12.7351 514.387 8.45308L519.827 0.668086L509.084 0.953082L498.342 1.23809L468.517 44.7291C452.113 68.6501 438.331 88.3411 437.89 88.4881C437.448 88.6351 435.524 69.0641 433.614 44.9971L430.14 1.23809L411.89 0.965083C401.852 0.816083 393.64 0.966082 393.64 1.30008ZM534.36 4.48809C533.537 6.55109 522.853 34.7881 510.618 67.2381C498.383 99.6881 488.155 126.811 487.89 127.511C487.509 128.519 491.231 128.727 505.771 128.511L524.134 128.238L547.389 66.7381C560.179 32.9131 570.916 4.22509 571.25 2.98809L571.857 0.738085H553.857H535.857L534.36 4.48809ZM615.047 1.76908C604.213 3.91708 593.64 12.2081 588.947 22.2381C586.488 27.4941 586.14 29.4171 586.14 37.7531C586.14 51.1661 588.735 56.0811 604.994 73.4651C624.793 94.6341 627.977 100.716 623.131 108.111C619.866 113.094 619.121 113.206 585.763 113.738L554.387 114.238L551.587 121.529L548.788 128.819L590.964 128.529L633.14 128.238L638.681 125.517C654.753 117.623 663.452 100.03 659.147 84.1251C656.586 74.6661 650.928 66.7571 636.684 52.7251C620.677 36.9571 618.195 33.3831 618.9 27.1241C619.26 23.9341 620.236 21.6871 622.052 19.8701L624.682 17.2381L654.788 16.7381L684.893 16.2381L687.767 8.75408C689.347 4.63808 690.64 1.15108 690.64 1.00408C690.64 0.325084 618.655 1.05308 615.047 1.76908ZM717.258 1.54608C716.623 2.57508 670.532 124.63 669.88 127.011C669.426 128.668 670.583 128.766 687.593 128.511L705.792 128.238L729.716 64.8521C742.874 29.9891 753.64 1.30108 753.64 1.10208C753.64 0.339084 717.733 0.778084 717.258 1.54608ZM917.839 3.48809C917.291 5.00109 906.447 33.6331 893.741 67.1151C881.036 100.597 870.64 128.176 870.64 128.402C870.64 128.628 874.762 128.684 879.8 128.526L888.959 128.238L905.523 84.5121C914.633 60.4621 922.358 41.1121 922.689 41.5121C923.02 41.9111 930.139 60.4631 938.509 82.7381C950.863 115.618 954.285 123.755 956.699 125.988C959.561 128.636 960.075 128.738 970.496 128.738H981.321L1004.91 66.4881C1017.88 32.2501 1028.81 3.43308 1029.19 2.44908C1029.83 0.796084 1029.17 0.682084 1020.54 0.949084L1011.2 1.23809L1000.4 29.7381C994.467 45.4131 987.076 64.9001 983.98 73.0431C980.883 81.1861 978.029 87.4861 977.637 87.0431C977.244 86.6001 969.608 68.0341 960.668 45.7841C951.727 23.5351 943.941 4.29708 943.365 3.03408C942.36 0.829083 941.854 0.738085 930.577 0.738085H918.836L917.839 3.48809ZM843.204 14.7781C847.963 17.7191 850.371 24.3541 848.702 29.9241C845.462 40.7391 822.26 100.656 820.119 103.738C814.704 111.533 805.006 116.764 794.591 117.509C787.377 118.026 783.926 116.84 779.808 112.431C774.76 107.027 775.17 105.164 790.222 65.1481C803.602 29.5731 804.206 28.2241 809.092 23.0281C815.638 16.0661 823.262 12.7951 833.022 12.7621C838.233 12.7441 840.705 13.2331 843.204 14.7781Z" fill="white"/>
</svg>
