<?xml version="1.0" encoding="UTF-8" standalone="no"?>
<!-- Created with Inkscape (http://www.inkscape.org/) -->

<svg
   width="190.5mm"
   height="190.51779mm"
   viewBox="0 0 190.5 190.51779"
   version="1.1"
   id="svg1878"
   sodipodi:docname="icon-color.svg"
   inkscape:export-filename="/Users/eserrano/icon-white.png"
   inkscape:export-xdpi="96"
   inkscape:export-ydpi="96"
   inkscape:version="1.1.2 (b8e25be8, 2022-02-05)"
   xmlns:inkscape="http://www.inkscape.org/namespaces/inkscape"
   xmlns:sodipodi="http://sodipodi.sourceforge.net/DTD/sodipodi-0.dtd"
   xmlns:xlink="http://www.w3.org/1999/xlink"
   xmlns="http://www.w3.org/2000/svg"
   xmlns:svg="http://www.w3.org/2000/svg">
  <sodipodi:namedview
     id="namedview1880"
     pagecolor="#ffffff"
     bordercolor="#666666"
     borderopacity="1.0"
     inkscape:pageshadow="2"
     inkscape:pageopacity="0.0"
     inkscape:pagecheckerboard="0"
     inkscape:document-units="mm"
     showgrid="false"
     fit-margin-top="0"
     fit-margin-left="0"
     fit-margin-right="0"
     fit-margin-bottom="0"
     inkscape:zoom="0.42582772"
     inkscape:cx="314.68125"
     inkscape:cy="363.99697"
     inkscape:window-width="1440"
     inkscape:window-height="791"
     inkscape:window-x="0"
     inkscape:window-y="25"
     inkscape:window-maximized="1"
     inkscape:current-layer="layer1" />
  <defs
     id="defs1875">
    <linearGradient
       inkscape:collect="always"
       xlink:href="#linearGradient58924"
       id="linearGradient58918"
       x1="-120.41457"
       y1="555.77814"
       x2="-108.88754"
       y2="569.06622"
       gradientUnits="userSpaceOnUse"
       gradientTransform="matrix(9.9971671,0,0,9.9971671,1246.0815,-5381.9232)" />
    <linearGradient
       inkscape:collect="always"
       id="linearGradient58924">
      <stop
         style="stop-color:#0591f1;stop-opacity:1"
         offset="0"
         id="stop58920" />
      <stop
         style="stop-color:#5123f5;stop-opacity:1"
         offset="1"
         id="stop58922" />
    </linearGradient>
  </defs>
  <g
     inkscape:label="Layer 1"
     inkscape:groupmode="layer"
     id="layer1"
     transform="translate(0.44570887,-143.08225)">
    <path
       id="path57190"
       style="fill:url(#linearGradient58918);fill-opacity:1;stroke-width:1.03387"
       d="m 94.804246,170.6419 c -37.38922,0 -67.699735,30.31051 -67.699735,67.69973 0,17.44793 6.601489,33.35499 17.441918,45.3587 0.770683,0.85373 1.107209,2.00235 1.107209,3.1529 0,6.8165 5.52668,12.34153 12.343531,12.34153 6.816851,0 12.3416,-5.52503 12.3416,-12.34153 0,-6.81728 -5.524749,-12.34338 -12.3416,-12.34338 -2.681694,0 -5.563729,-0.51928 -7.170185,-2.6656 -6.910621,-9.23727 -11.00365,-20.70397 -11.00365,-33.12775 0,-30.5723 24.783907,-55.35635 55.356204,-55.35635 0.655886,0 1.309126,0.0143 1.959218,0.0286 2.930104,0.10657 5.722734,-1.48336 6.844674,-4.19266 1.588,-3.83361 -0.77075,-8.16932 -4.912921,-8.4271 -1.410048,-0.0901 -2.833256,-0.13805 -4.265834,-0.13805 z m 39.238284,7.42074 c -6.81699,0 -12.34338,5.52653 -12.34338,12.34331 0,6.81685 5.52639,12.34353 12.34338,12.34353 1.80938,0 3.67604,0.49996 4.79062,1.92575 7.33219,9.38961 11.70223,21.20428 11.70223,34.04127 0,30.57244 -24.7839,55.3582 -55.356271,55.3582 v -0.002 c -0.635859,0 -1.270859,-0.0143 -1.902069,-0.0286 -2.749786,-0.0901 -5.363459,1.40697 -6.41631,3.94812 -1.518695,3.66502 0.788708,7.79496 4.751132,7.97892 1.058358,0.0501 2.122295,0.0801 3.192384,0.0801 37.388794,0 67.699804,-30.30894 67.699804,-67.69781 0,-15.72874 -5.36517,-30.20508 -14.36404,-41.69868 -1.36256,-1.74099 -1.75595,-4.02765 -1.75595,-6.23886 0,-6.81692 -5.52532,-12.34345 -12.34153,-12.34345 z m -26.32856,28.93101 c -2.26084,0.006 -4.32856,0.83469 -5.91721,2.20369 -1.99884,1.72132 -4.242085,3.52032 -6.880077,3.5279 -2.637706,0.006 -4.892966,-1.77861 -6.901823,-3.48842 -1.596585,-1.35812 -3.666023,-2.17794 -5.927006,-2.17029 -5.032155,0.0143 -9.100436,4.10526 -9.085988,9.1372 8.59e-4,0.37837 0.02861,0.7508 0.08011,1.11651 0.0058,0.0572 0.0143,0.12159 0.0143,0.17595 0.329731,2.61668 0.590082,5.4804 -0.859733,7.68309 -1.451318,2.20255 -4.183795,3.09404 -6.71829,3.82381 -2.015222,0.58007 -3.840831,1.85636 -5.084582,3.74492 -2.767667,4.20253 -1.604096,9.85195 2.598438,12.61961 4.202749,2.76767 9.851951,1.60417 12.619762,-2.59851 1.243393,-1.88826 1.695075,-4.06785 1.432935,-6.14802 -0.329731,-2.61682 -0.590083,-5.48018 0.859804,-7.68302 1.45139,-2.20312 4.183723,-3.09575 6.71829,-3.82588 1.71875,-0.49352 3.298956,-1.49573 4.498648,-2.95163 1.715746,-1.38566 3.615384,-2.59493 5.779021,-2.60251 2.637777,-0.006 4.893038,1.7789 6.901901,3.48849 1.59658,1.35955 3.66602,2.17795 5.927,2.17022 5.03201,-0.0143 9.10058,-4.10705 9.08599,-9.1392 -0.0143,-5.03216 -4.10512,-9.09922 -9.13727,-9.08391 z m 13.12087,25.25118 c -1.32587,0.0286 -2.66518,0.35834 -3.92445,1.00478 -4.47762,2.29668 -6.24651,7.78724 -3.94998,12.26464 2.29639,4.47762 7.78874,6.24651 12.26636,3.95019 4.47791,-2.2966 6.24479,-7.78923 3.94826,-12.26664 -1.65066,-3.2182 -4.95119,-5.03673 -8.34019,-4.95233 z m -12.98662,21.44518 c -2.26098,0.006 -4.32856,0.83477 -5.91735,2.2039 -1.998698,1.72104 -4.242443,3.52033 -6.879934,3.52784 -2.637634,0.006 -4.891178,-1.77883 -6.89982,-3.48835 -1.596586,-1.35955 -3.66817,-2.17687 -5.929152,-2.17051 -5.032012,0.0143 -9.100365,4.10526 -9.085845,9.13735 0.01431,5.03236 4.105045,9.10043 9.137271,9.08598 2.261198,-0.006 4.328204,-0.8347 5.917208,-2.2039 1.998342,-1.72111 4.242516,-3.52011 6.880079,-3.5277 2.637491,-0.006 4.891321,1.77862 6.899603,3.48829 1.59687,1.35948 3.66789,2.17687 5.92915,2.17043 5.03209,-0.0143 9.10044,-4.10712 9.08592,-9.13927 -0.0143,-5.03216 -4.10497,-9.09844 -9.13713,-9.08406 z" />
  </g>
</svg>
