<?xml version="1.0" encoding="UTF-8" standalone="no"?>
<!-- Created with Inkscape (http://www.inkscape.org/) -->

<svg
   width="190.5mm"
   height="39.698051mm"
   viewBox="0 0 190.5 39.698051"
   version="1.1"
   id="svg1122"
   inkscape:version="1.1.2 (b8e25be8, 2022-02-05)"
   sodipodi:docname="logo-full-blcak.svg"
   inkscape:export-filename="/Users/eserrano/logo-full-white.png"
   inkscape:export-xdpi="96"
   inkscape:export-ydpi="96"
   xmlns:inkscape="http://www.inkscape.org/namespaces/inkscape"
   xmlns:sodipodi="http://sodipodi.sourceforge.net/DTD/sodipodi-0.dtd"
   xmlns="http://www.w3.org/2000/svg"
   xmlns:svg="http://www.w3.org/2000/svg">
  <sodipodi:namedview
     id="namedview1124"
     pagecolor="#ffffff"
     bordercolor="#666666"
     borderopacity="1.0"
     inkscape:pageshadow="2"
     inkscape:pageopacity="0.0"
     inkscape:pagecheckerboard="0"
     inkscape:document-units="mm"
     showgrid="false"
     fit-margin-top="0"
     fit-margin-left="0"
     fit-margin-right="0"
     fit-margin-bottom="0"
     inkscape:zoom="0.42582772"
     inkscape:cx="68.102659"
     inkscape:cy="108.02491"
     inkscape:window-width="1440"
     inkscape:window-height="791"
     inkscape:window-x="0"
     inkscape:window-y="25"
     inkscape:window-maximized="1"
     inkscape:current-layer="layer1" />
  <defs
     id="defs1119" />
  <g
     inkscape:label="Layer 1"
     inkscape:groupmode="layer"
     id="layer1"
     transform="translate(-9.8224627,-131.02478)">
    <path
       id="path19443"
       style="fill:#000000;fill-opacity:1;stroke-width:0.236679"
       d="m 46.192053,135.3761 c -8.559354,0 -15.498201,6.93885 -15.498201,15.4982 0,3.99427 1.511238,7.63581 3.992904,10.38376 0.176454,0.19536 0.253477,0.4584 0.253477,0.72178 0,1.56047 1.265183,2.8253 2.825752,2.8253 1.560533,0 2.825296,-1.26483 2.825296,-2.8253 0,-1.56063 -1.264763,-2.82571 -2.825296,-2.82571 -0.613913,0 -1.273691,-0.11869 -1.641443,-0.61024 -1.58203,-2.11461 -2.519023,-4.73965 -2.519023,-7.58378 0,-6.99878 5.673665,-12.67245 12.67245,-12.67245 0.150196,0 0.299692,0.002 0.448523,0.007 0.67077,0.0245 1.310066,-0.3396 1.566905,-0.95982 0.363517,-0.87761 -0.176454,-1.87016 -1.124685,-1.92916 -0.322799,-0.021 -0.648609,-0.0315 -0.976554,-0.0315 z m 8.982634,1.69879 c -1.560569,0 -2.825717,1.26518 -2.825717,2.82572 0,1.56056 1.265148,2.82575 2.825717,2.82575 0.414212,0 0.841553,0.11448 1.096711,0.44085 1.678519,2.14952 2.678916,4.85421 2.678916,7.7929 0,6.99882 -5.673664,12.67291 -12.67245,12.67291 v -4.6e-4 c -0.145644,0 -0.290939,-0.003 -0.435428,-0.007 -0.629493,-0.021 -1.227827,0.3221 -1.468876,0.90384 -0.347656,0.83899 0.180656,1.78446 1.087679,1.82658 0.242274,0.0105 0.485844,0.0175 0.730814,0.0175 8.559249,0 15.498201,-6.93846 15.498201,-15.49774 0,-3.60072 -1.228211,-6.91469 -3.288278,-9.54589 -0.311946,-0.39856 -0.401993,-0.92204 -0.401993,-1.42823 0,-1.56057 -1.264868,-2.82575 -2.825296,-2.82575 z m -6.027273,6.62305 c -0.517564,0.001 -0.990909,0.19116 -1.3546,0.5045 -0.457591,0.39405 -0.971128,0.80588 -1.575028,0.80763 -0.60383,0.002 -1.120134,-0.40717 -1.58,-0.79859 -0.365477,-0.3109 -0.839242,-0.49859 -1.356841,-0.49684 -1.151993,0.003 -2.083313,0.93979 -2.080022,2.09175 2.1e-4,0.0865 0.007,0.1719 0.0175,0.25558 0.0014,0.014 0.0028,0.028 0.0035,0.0403 0.07562,0.59904 0.135142,1.25461 -0.19676,1.75887 -0.332252,0.50423 -0.957789,0.7083 -1.537987,0.87537 -0.461336,0.1327 -0.879259,0.42496 -1.164001,0.85731 -0.63359,0.96206 -0.367228,2.25536 0.594867,2.88895 0.962095,0.63359 2.255356,0.36723 2.888981,-0.59487 0.284637,-0.43228 0.388059,-0.93125 0.32805,-1.40743 -0.07562,-0.59907 -0.135141,-1.25458 0.19676,-1.75887 0.332252,-0.50433 0.957754,-0.70869 1.537987,-0.87583 0.393451,-0.11308 0.755216,-0.3424 1.029841,-0.67571 0.392785,-0.31719 0.827653,-0.59402 1.322985,-0.59577 0.60383,-0.002 1.120134,0.40724 1.58,0.79859 0.365477,0.31125 0.839242,0.49859 1.356841,0.49684 1.151958,-0.003 2.083348,-0.94021 2.080022,-2.09221 -0.0033,-1.15199 -0.939758,-2.08303 -2.091751,-2.07953 z m 3.003711,5.78066 c -0.303543,0.007 -0.610132,0.0819 -0.898411,0.23002 -1.025044,0.52575 -1.429978,1.78267 -0.904257,2.80768 0.525721,1.02505 1.783062,1.42998 2.808106,0.9043 1.025079,-0.52576 1.429558,-1.78314 0.903837,-2.80815 -0.377871,-0.73673 -1.133472,-1.15304 -1.909275,-1.13371 z m -2.972972,4.90934 c -0.517598,0.002 -0.990908,0.19116 -1.354635,0.50454 -0.457555,0.39398 -0.971198,0.80588 -1.574993,0.80759 -0.60383,0.002 -1.119713,-0.40721 -1.579544,-0.79856 -0.365512,-0.31124 -0.839732,-0.49834 -1.357331,-0.49687 -1.151958,0.004 -2.083314,0.9398 -2.079988,2.09175 0.0033,1.15203 0.939758,2.08332 2.091751,2.08003 0.517669,-0.002 0.990839,-0.19116 1.354601,-0.50454 0.457485,-0.39401 0.971232,-0.80585 1.575028,-0.8076 0.603795,-0.002 1.119748,0.40718 1.579509,0.79856 0.365547,0.31125 0.839662,0.49835 1.357331,0.49688 1.151958,-0.004 2.083314,-0.94022 2.079988,-2.09221 -0.0033,-1.15199 -0.939724,-2.08286 -2.091717,-2.07957 z" />
    <g
       style="fill:#000000;fill-opacity:1"
       id="g2036"
       transform="matrix(0.65044417,0,0,0.65044417,71.621644,139.62157)">
      <path
         d="M 2.42,15 C 1.98,15 1.57333,14.8933 1.2,14.68 0.84,14.4667 0.553333,14.18 0.34,13.82 0.126667,13.4467 0.0200001,13.04 0.0200001,12.6 V 12.04 H 1.64 v 0.56 c 0,0.2133 0.07333,0.4 0.22,0.56 0.16,0.1467 0.34667,0.22 0.56,0.22 h 9.6 c 0.2133,0 0.3933,-0.0733 0.54,-0.22 C 12.72,13 12.8,12.8133 12.8,12.6 V 9.38 C 12.8,9.16667 12.72,8.98667 12.56,8.84 12.4133,8.69333 12.2333,8.62 12.02,8.62 H 2.42 C 1.98,8.62 1.57333,8.51333 1.2,8.3 0.84,8.07333 0.553333,7.78 0.34,7.42 0.126667,7.06 0.0200001,6.66 0.0200001,6.22 V 3 C 0.0200001,2.56 0.126667,2.16 0.34,1.8 0.553333,1.42667 0.84,1.13333 1.2,0.919999 c 0.37333,-0.213333 0.78,-0.32 1.22,-0.32 h 9.6 c 0.44,0 0.84,0.106667 1.2,0.32 C 13.5933,1.13333 13.8867,1.42667 14.1,1.8 14.3133,2.16 14.42,2.56 14.42,3 V 3.56 H 12.8 V 3 C 12.8,2.78667 12.72,2.60667 12.56,2.46 12.4133,2.3 12.2333,2.22 12.02,2.22 H 2.42 C 2.20667,2.22 2.02,2.3 1.86,2.46 1.71333,2.60667 1.64,2.78667 1.64,3 v 3.22 c 0,0.21333 0.07333,0.39333 0.22,0.54 0.16,0.14667 0.34667,0.22 0.56,0.22 h 9.6 c 0.44,0 0.84,0.11333 1.2,0.34 0.3733,0.21333 0.6667,0.5 0.88,0.86 0.2133,0.36 0.32,0.76 0.32,1.2 v 3.22 c 0,0.44 -0.1067,0.8467 -0.32,1.22 -0.2133,0.36 -0.5067,0.6467 -0.88,0.86 -0.36,0.2133 -0.76,0.32 -1.2,0.32 z m 14.1853,0 V 0.599999 h 13.14 V 2.22 h -11.52 v 4.76 h 9.26 v 1.64 h -9.26 v 4.76 h 11.52 V 15 Z m 17.6725,0 c -0.44,0 -0.8467,-0.1067 -1.22,-0.32 -0.36,-0.2133 -0.6467,-0.5 -0.86,-0.86 -0.2133,-0.3733 -0.32,-0.78 -0.32,-1.22 V 3 c 0,-0.44 0.1067,-0.84 0.32,-1.2 0.2133,-0.37333 0.5,-0.66667 0.86,-0.880001 0.3733,-0.213333 0.78,-0.32 1.22,-0.32 h 11.96 V 2.22 h -11.96 c -0.2133,0 -0.4,0.08 -0.56,0.24 -0.1467,0.14667 -0.22,0.32667 -0.22,0.54 v 9.6 c 0,0.2133 0.0733,0.4 0.22,0.56 0.16,0.1467 0.3467,0.22 0.56,0.22 h 11.96 V 15 Z m 16.4053,0 c -0.44,0 -0.8466,-0.1067 -1.22,-0.32 -0.36,-0.2133 -0.6466,-0.5 -0.86,-0.86 -0.2133,-0.3733 -0.32,-0.78 -0.32,-1.22 V 0.599999 h 1.62 V 12.6 c 0,0.2133 0.0734,0.4 0.22,0.56 0.16,0.1467 0.3467,0.22 0.56,0.22 h 9.6 c 0.2134,0 0.3934,-0.0733 0.54,-0.22 0.16,-0.16 0.24,-0.3467 0.24,-0.56 V 0.599999 h 1.62 V 12.6 c 0,0.44 -0.1066,0.8467 -0.32,1.22 -0.2133,0.36 -0.5066,0.6467 -0.88,0.86 -0.36,0.2133 -0.76,0.32 -1.2,0.32 z m 26.3625,0 -4.7,-5.6 h 2.12 l 4.72,5.58 V 15 Z m -12.16,0 V 0.619999 h 12 c 0.44,0 0.84,0.113334 1.2,0.340001 0.3734,0.21333 0.6667,0.5 0.88,0.86 0.2134,0.36 0.32,0.76 0.32,1.2 v 4.22 c 0,0.44 -0.1066,0.84 -0.32,1.2 -0.2133,0.36 -0.5066,0.65333 -0.88,0.88 -0.36,0.21333 -0.76,0.32 -1.2,0.32 h -10.38 V 15 Z m 2.4,-7 h 9.6 c 0.2134,0 0.3934,-0.07333 0.54,-0.22 0.16,-0.14667 0.24,-0.32667 0.24,-0.54 V 3.02 c 0,-0.21333 -0.08,-0.39333 -0.24,-0.54 C 77.279,2.32 77.099,2.24 76.8856,2.24 h -9.6 c -0.2133,0 -0.4,0.08 -0.56,0.24 -0.1466,0.14667 -0.22,0.32667 -0.22,0.54 v 4.22 c 0,0.21333 0.0734,0.39333 0.22,0.54 0.16,0.14667 0.3467,0.22 0.56,0.22 z m 14.3039,7 V 0.599999 h 1.64 V 15 Z m 9.7574,0 V 2.22 h -6.4 V 0.599999 h 14.4 V 2.22 h -6.38 V 15 Z m 15.6361,0 V 9.58 l -6.62,-8.980001 h 1.86 l 5.58,7.040001 5.52,-7.040001 h 1.9 L 108.603,9.58 V 15 Z M 3,34 C 2.46667,34 1.98,33.8733 1.54,33.62 1.11333,33.3533 0.766667,33.0067 0.5,32.58 0.246667,32.14 0.12,31.6533 0.12,31.12 V 22.48 C 0.12,21.9467 0.246667,21.4667 0.5,21.04 0.766667,20.6 1.11333,20.2533 1.54,20 1.98,19.7333 2.46667,19.6 3,19.6 h 8.62 c 0.5333,0 1.0133,0.1333 1.44,0.4 0.44,0.2533 0.7933,0.6 1.06,1.04 0.2667,0.4267 0.4,0.9067 0.4,1.44 v 1.24 H 11.6 v -1.1 c 0,-0.04 -0.0133,-0.0667 -0.04,-0.08 C 11.5467,22.5133 11.52,22.5 11.48,22.5 H 3.12 c -0.04,0 -0.07333,0.0133 -0.1,0.04 C 3.00667,22.5533 3,22.58 3,22.62 v 8.36 c 0,0.04 0.00667,0.0733 0.02,0.1 0.02667,0.0133 0.06,0.02 0.1,0.02 h 8.36 c 0.04,0 0.0667,-0.0067 0.08,-0.02 0.0267,-0.0267 0.04,-0.06 0.04,-0.1 V 28.62 H 8.42 v -2.9 h 6.1 v 5.4 c 0,0.5333 -0.1333,1.02 -0.4,1.46 -0.2667,0.4267 -0.62,0.7733 -1.06,1.04 C 12.6333,33.8733 12.1533,34 11.62,34 Z m 13.7416,0 V 19.58 h 2.88 V 31.1 h 11.52 V 34 Z m 18.4059,0 c -0.5333,0 -1.02,-0.1267 -1.46,-0.38 -0.4267,-0.2667 -0.7733,-0.6133 -1.04,-1.04 -0.2533,-0.44 -0.38,-0.9267 -0.38,-1.46 v -8.64 c 0,-0.5333 0.1267,-1.0133 0.38,-1.44 0.2667,-0.44 0.6133,-0.7867 1.04,-1.04 0.44,-0.2667 0.9267,-0.4 1.46,-0.4 h 8.64 c 0.52,0 0.9933,0.1333 1.42,0.4 0.44,0.2533 0.7933,0.6 1.06,1.04 0.2667,0.4267 0.4,0.9067 0.4,1.44 v 8.64 c 0,0.5333 -0.1333,1.02 -0.4,1.46 -0.2667,0.4267 -0.62,0.7733 -1.06,1.04 -0.4267,0.2533 -0.9,0.38 -1.42,0.38 z m 0.12,-2.9 h 8.36 c 0.04,0 0.0667,-0.0067 0.08,-0.02 0.0267,-0.0267 0.04,-0.06 0.04,-0.1 v -8.36 c 0,-0.04 -0.0133,-0.0667 -0.04,-0.08 -0.0133,-0.0267 -0.04,-0.04 -0.08,-0.04 h -8.36 c -0.04,0 -0.0733,0.0133 -0.1,0.04 -0.0133,0.0133 -0.02,0.04 -0.02,0.08 v 8.36 c 0,0.04 0.0067,0.0733 0.02,0.1 0.0267,0.0133 0.06,0.02 0.1,0.02 z M 48.93,34 V 19.6 h 10.96 c 0.52,0 0.9933,0.1333 1.42,0.4 0.44,0.2533 0.7933,0.6 1.06,1.04 0.2667,0.4267 0.4,0.9067 0.4,1.44 v 2.76 c 0,0.1733 -0.0133,0.34 -0.04,0.5 -0.0267,0.1467 -0.0667,0.2933 -0.12,0.44 0.2133,0.28 0.3867,0.5867 0.52,0.92 0.1333,0.32 0.2,0.6467 0.2,0.98 v 3.04 c 0,0.5333 -0.1333,1.02 -0.4,1.46 -0.2667,0.4267 -0.62,0.7733 -1.06,1.04 C 61.4433,33.8733 60.9633,34 60.43,34 Z m 3,-2.9 h 8.36 c 0.04,0 0.0667,-0.0067 0.08,-0.02 0.0267,-0.0267 0.04,-0.06 0.04,-0.1 v -2.74 c 0,-0.0267 -0.0133,-0.0533 -0.04,-0.08 -0.0133,-0.0267 -0.04,-0.04 -0.08,-0.04 h -8.36 c -0.04,0 -0.0733,0.0133 -0.1,0.04 -0.0133,0.0267 -0.02,0.0533 -0.02,0.08 v 2.74 c 0,0.04 0.0067,0.0733 0.02,0.1 0.0267,0.0133 0.06,0.02 0.1,0.02 z m 0,-5.88 h 7.8 c 0.0267,0 0.0533,-0.0067 0.08,-0.02 0.0267,-0.0267 0.04,-0.0533 0.04,-0.08 v -2.5 c 0,-0.04 -0.0133,-0.0667 -0.04,-0.08 -0.0267,-0.0267 -0.0533,-0.04 -0.08,-0.04 h -7.8 c -0.04,0 -0.0733,0.0133 -0.1,0.04 -0.0133,0.0133 -0.02,0.04 -0.02,0.08 v 2.5 c 0,0.0267 0.0067,0.0533 0.02,0.08 0.0267,0.0133 0.06,0.02 0.1,0.02 z M 65.5506,34 V 22.48 c 0,-0.5333 0.1267,-1.0133 0.38,-1.44 0.2667,-0.44 0.6134,-0.7867 1.04,-1.04 0.44,-0.2667 0.9267,-0.4 1.46,-0.4 h 8.62 c 0.5334,0 1.0134,0.1333 1.44,0.4 0.44,0.2533 0.7934,0.6 1.06,1.04 0.2667,0.4267 0.4,0.9067 0.4,1.44 V 34 h -2.92 v -4.74 h -8.6 V 34 Z m 2.88,-7.62 h 8.6 v -3.76 c 0,-0.04 -0.0133,-0.0667 -0.04,-0.08 -0.0133,-0.0267 -0.04,-0.04 -0.08,-0.04 h -8.36 c -0.04,0 -0.0733,0.0133 -0.1,0.04 -0.0133,0.0133 -0.02,0.04 -0.02,0.08 z M 82.2494,34 V 19.58 h 2.88 V 31.1 h 11.52 V 34 Z m 26.9146,0 V 22.5 h -5.76 v -2.9 h 14.4 v 2.9 h -5.74 V 34 Z m 10.176,0 V 19.6 h 13.28 v 2.9 h -10.36 v 2.84 h 8.34 v 2.92 h -8.34 v 2.84 h 10.36 V 34 Z m 18.152,0 c -0.533,0 -1.02,-0.1267 -1.46,-0.38 -0.426,-0.2667 -0.773,-0.6133 -1.04,-1.04 -0.253,-0.44 -0.38,-0.9267 -0.38,-1.46 v -8.64 c 0,-0.5333 0.127,-1.0133 0.38,-1.44 0.267,-0.44 0.614,-0.7867 1.04,-1.04 0.44,-0.2667 0.927,-0.4 1.46,-0.4 h 11.48 v 2.9 h -10.8 c -0.213,0 -0.38,0.06 -0.5,0.18 -0.12,0.1067 -0.18,0.2733 -0.18,0.5 v 7.24 c 0,0.2133 0.06,0.38 0.18,0.5 0.12,0.12 0.287,0.18 0.5,0.18 h 10.8 V 34 Z m 13.586,0 V 19.6 h 2.88 v 5.74 h 8.94 V 19.6 h 2.88 V 34 h -2.88 v -5.74 h -8.94 V 34 Z"
         fill="#0f0930"
         id="path2027"
         style="fill:#000000;fill-opacity:1" />
    </g>
  </g>
</svg>
