<?xml version="1.0" encoding="UTF-8" standalone="no"?>
<!-- Created with Inkscape (http://www.inkscape.org/) -->

<svg
   width="190.5mm"
   height="39.698051mm"
   viewBox="0 0 190.5 39.698051"
   version="1.1"
   id="svg1122"
   inkscape:version="1.1.2 (b8e25be8, 2022-02-05)"
   sodipodi:docname="logo-full-color.svg"
   xmlns:inkscape="http://www.inkscape.org/namespaces/inkscape"
   xmlns:sodipodi="http://sodipodi.sourceforge.net/DTD/sodipodi-0.dtd"
   xmlns:xlink="http://www.w3.org/1999/xlink"
   xmlns="http://www.w3.org/2000/svg"
   xmlns:svg="http://www.w3.org/2000/svg">
  <sodipodi:namedview
     id="namedview1124"
     pagecolor="#ffffff"
     bordercolor="#666666"
     borderopacity="1.0"
     inkscape:pageshadow="2"
     inkscape:pageopacity="0.0"
     inkscape:pagecheckerboard="0"
     inkscape:document-units="mm"
     showgrid="false"
     fit-margin-top="0"
     fit-margin-left="0"
     fit-margin-right="0"
     fit-margin-bottom="0"
     inkscape:zoom="0.42582772"
     inkscape:cx="433.27381"
     inkscape:cy="145.59879"
     inkscape:window-width="1440"
     inkscape:window-height="791"
     inkscape:window-x="0"
     inkscape:window-y="25"
     inkscape:window-maximized="1"
     inkscape:current-layer="layer1" />
  <defs
     id="defs1119">
    <linearGradient
       inkscape:collect="always"
       xlink:href="#linearGradient19498"
       id="linearGradient19500"
       x1="109.57292"
       y1="741.90002"
       x2="237.408"
       y2="876.58337"
       gradientUnits="userSpaceOnUse"
       gradientTransform="matrix(0.06605474,0,0,0.06605474,-127.41262,394.56325)" />
    <linearGradient
       inkscape:collect="always"
       id="linearGradient19498">
      <stop
         style="stop-color:#0097f1;stop-opacity:1"
         offset="0"
         id="stop19494" />
      <stop
         style="stop-color:#541ff5;stop-opacity:1"
         offset="1"
         id="stop19496" />
    </linearGradient>
  </defs>
  <g
     inkscape:label="Layer 1"
     inkscape:groupmode="layer"
     id="layer1"
     transform="translate(-9.8224627,-131.02478)">
    <g
       id="g56838"
       inkscape:export-filename="/Users/eserrano/Desktop/logo.png"
       inkscape:export-xdpi="96"
       inkscape:export-ydpi="96"
       transform="matrix(3.5010733,0,0,3.5010733,1603.6547,-1741.6879)">
      <g
         id="g43616"
         transform="translate(-328.779,92.550816)">
        <path
           id="path19443"
           style="fill:url(#linearGradient19500);fill-opacity:1;stroke-width:0.0676017"
           d="m -116.07391,443.58877 c -2.44478,0 -4.4267,1.98192 -4.4267,4.4267 0,1.14087 0.43165,2.18099 1.14048,2.96588 0.0504,0.0558 0.0724,0.13093 0.0724,0.20616 0,0.44571 0.36137,0.80698 0.80711,0.80698 0.44573,0 0.80698,-0.36127 0.80698,-0.80698 0,-0.44576 -0.36125,-0.8071 -0.80698,-0.8071 -0.17535,0 -0.3638,-0.0339 -0.46884,-0.1743 -0.45187,-0.60399 -0.7195,-1.35377 -0.7195,-2.16613 0,-1.99904 1.62055,-3.61959 3.61959,-3.61959 0.0429,0 0.0856,6.9e-4 0.12811,0.002 0.19159,0.007 0.37419,-0.097 0.44755,-0.27415 0.10383,-0.25067 -0.0504,-0.53417 -0.32124,-0.55102 -0.0922,-0.006 -0.18526,-0.009 -0.27893,-0.009 z m 2.56568,0.48522 c -0.44574,0 -0.8071,0.36137 -0.8071,0.8071 0,0.44574 0.36136,0.80711 0.8071,0.80711 0.11831,0 0.24037,0.0327 0.31325,0.12592 0.47943,0.61396 0.76517,1.38649 0.76517,2.22586 0,1.99905 -1.62055,3.61972 -3.61959,3.61972 v -1.3e-4 c -0.0416,0 -0.0831,-8.2e-4 -0.12437,-0.002 -0.1798,-0.006 -0.3507,0.092 -0.41955,0.25816 -0.0993,0.23964 0.0516,0.50969 0.31067,0.52172 0.0692,0.003 0.13877,0.005 0.20874,0.005 2.44475,0 4.4267,-1.98181 4.4267,-4.42657 0,-1.02846 -0.35081,-1.97502 -0.93922,-2.72656 -0.0891,-0.11384 -0.11482,-0.26336 -0.11482,-0.40794 0,-0.44574 -0.36128,-0.80711 -0.80698,-0.80711 z m -1.72155,1.89172 c -0.14783,3.9e-4 -0.28303,0.0546 -0.38691,0.1441 -0.1307,0.11255 -0.27738,0.23018 -0.44987,0.23068 -0.17247,5.3e-4 -0.31994,-0.1163 -0.45129,-0.2281 -0.10439,-0.0888 -0.23971,-0.14241 -0.38755,-0.14191 -0.32904,9.4e-4 -0.59505,0.26843 -0.59411,0.59746 6e-5,0.0247 0.002,0.0491 0.005,0.073 3.9e-4,0.004 8.1e-4,0.008 0.001,0.0115 0.0216,0.1711 0.0386,0.35835 -0.0562,0.50238 -0.0949,0.14402 -0.27357,0.20231 -0.43929,0.25003 -0.13177,0.0379 -0.25114,0.12138 -0.33247,0.24487 -0.18097,0.27479 -0.10489,0.64419 0.16991,0.82516 0.2748,0.18097 0.64419,0.10489 0.82517,-0.16991 0.0813,-0.12347 0.11084,-0.26599 0.0937,-0.402 -0.0216,-0.17111 -0.0386,-0.35834 0.0562,-0.50238 0.0949,-0.14405 0.27356,-0.20242 0.43929,-0.25016 0.11238,-0.0323 0.21571,-0.0978 0.29415,-0.193 0.11219,-0.0906 0.2364,-0.16967 0.37788,-0.17017 0.17247,-5.3e-4 0.31994,0.11632 0.45129,0.2281 0.10439,0.0889 0.23971,0.14241 0.38755,0.14191 0.32903,-9.4e-4 0.59506,-0.26855 0.59411,-0.59759 -9.5e-4,-0.32904 -0.26842,-0.59497 -0.59746,-0.59397 z m 0.85794,1.65111 c -0.0867,0.002 -0.17427,0.0234 -0.25661,0.0657 -0.29278,0.15017 -0.40844,0.50918 -0.25828,0.80195 0.15016,0.29278 0.50929,0.40844 0.80207,0.25829 0.29279,-0.15017 0.40832,-0.50931 0.25816,-0.80208 -0.10793,-0.21043 -0.32375,-0.32934 -0.54534,-0.32382 z m -0.84916,1.40224 c -0.14784,5.3e-4 -0.28303,0.0546 -0.38692,0.14411 -0.13069,0.11253 -0.2774,0.23018 -0.44986,0.23067 -0.17247,5.3e-4 -0.31982,-0.11631 -0.45116,-0.22809 -0.1044,-0.0889 -0.23985,-0.14234 -0.38769,-0.14192 -0.32903,0.001 -0.59505,0.26843 -0.5941,0.59746 9.5e-4,0.32905 0.26842,0.59505 0.59746,0.59411 0.14786,-5.3e-4 0.28301,-0.0546 0.38691,-0.14411 0.13067,-0.11254 0.27741,-0.23017 0.44987,-0.23067 0.17246,-5.3e-4 0.31983,0.1163 0.45115,0.22809 0.10441,0.0889 0.23983,0.14234 0.38769,0.14192 0.32903,-10e-4 0.59505,-0.26855 0.5941,-0.59759 -9.5e-4,-0.32904 -0.26841,-0.59492 -0.59745,-0.59398 z" />
        <g
           style="fill:#1a1a1a;fill-opacity:1"
           id="g2036"
           transform="matrix(0.18578422,0,0,0.18578422,-108.81054,444.80139)">
          <path
             d="M 2.42,15 C 1.98,15 1.57333,14.8933 1.2,14.68 0.84,14.4667 0.553333,14.18 0.34,13.82 0.126667,13.4467 0.0200001,13.04 0.0200001,12.6 V 12.04 H 1.64 v 0.56 c 0,0.2133 0.07333,0.4 0.22,0.56 0.16,0.1467 0.34667,0.22 0.56,0.22 h 9.6 c 0.2133,0 0.3933,-0.0733 0.54,-0.22 C 12.72,13 12.8,12.8133 12.8,12.6 V 9.38 C 12.8,9.16667 12.72,8.98667 12.56,8.84 12.4133,8.69333 12.2333,8.62 12.02,8.62 H 2.42 C 1.98,8.62 1.57333,8.51333 1.2,8.3 0.84,8.07333 0.553333,7.78 0.34,7.42 0.126667,7.06 0.0200001,6.66 0.0200001,6.22 V 3 C 0.0200001,2.56 0.126667,2.16 0.34,1.8 0.553333,1.42667 0.84,1.13333 1.2,0.919999 c 0.37333,-0.213333 0.78,-0.32 1.22,-0.32 h 9.6 c 0.44,0 0.84,0.106667 1.2,0.32 C 13.5933,1.13333 13.8867,1.42667 14.1,1.8 14.3133,2.16 14.42,2.56 14.42,3 V 3.56 H 12.8 V 3 C 12.8,2.78667 12.72,2.60667 12.56,2.46 12.4133,2.3 12.2333,2.22 12.02,2.22 H 2.42 C 2.20667,2.22 2.02,2.3 1.86,2.46 1.71333,2.60667 1.64,2.78667 1.64,3 v 3.22 c 0,0.21333 0.07333,0.39333 0.22,0.54 0.16,0.14667 0.34667,0.22 0.56,0.22 h 9.6 c 0.44,0 0.84,0.11333 1.2,0.34 0.3733,0.21333 0.6667,0.5 0.88,0.86 0.2133,0.36 0.32,0.76 0.32,1.2 v 3.22 c 0,0.44 -0.1067,0.8467 -0.32,1.22 -0.2133,0.36 -0.5067,0.6467 -0.88,0.86 -0.36,0.2133 -0.76,0.32 -1.2,0.32 z m 14.1853,0 V 0.599999 h 13.14 V 2.22 h -11.52 v 4.76 h 9.26 v 1.64 h -9.26 v 4.76 h 11.52 V 15 Z m 17.6725,0 c -0.44,0 -0.8467,-0.1067 -1.22,-0.32 -0.36,-0.2133 -0.6467,-0.5 -0.86,-0.86 -0.2133,-0.3733 -0.32,-0.78 -0.32,-1.22 V 3 c 0,-0.44 0.1067,-0.84 0.32,-1.2 0.2133,-0.37333 0.5,-0.66667 0.86,-0.880001 0.3733,-0.213333 0.78,-0.32 1.22,-0.32 h 11.96 V 2.22 h -11.96 c -0.2133,0 -0.4,0.08 -0.56,0.24 -0.1467,0.14667 -0.22,0.32667 -0.22,0.54 v 9.6 c 0,0.2133 0.0733,0.4 0.22,0.56 0.16,0.1467 0.3467,0.22 0.56,0.22 h 11.96 V 15 Z m 16.4053,0 c -0.44,0 -0.8466,-0.1067 -1.22,-0.32 -0.36,-0.2133 -0.6466,-0.5 -0.86,-0.86 -0.2133,-0.3733 -0.32,-0.78 -0.32,-1.22 V 0.599999 h 1.62 V 12.6 c 0,0.2133 0.0734,0.4 0.22,0.56 0.16,0.1467 0.3467,0.22 0.56,0.22 h 9.6 c 0.2134,0 0.3934,-0.0733 0.54,-0.22 0.16,-0.16 0.24,-0.3467 0.24,-0.56 V 0.599999 h 1.62 V 12.6 c 0,0.44 -0.1066,0.8467 -0.32,1.22 -0.2133,0.36 -0.5066,0.6467 -0.88,0.86 -0.36,0.2133 -0.76,0.32 -1.2,0.32 z m 26.3625,0 -4.7,-5.6 h 2.12 l 4.72,5.58 V 15 Z m -12.16,0 V 0.619999 h 12 c 0.44,0 0.84,0.113334 1.2,0.340001 0.3734,0.21333 0.6667,0.5 0.88,0.86 0.2134,0.36 0.32,0.76 0.32,1.2 v 4.22 c 0,0.44 -0.1066,0.84 -0.32,1.2 -0.2133,0.36 -0.5066,0.65333 -0.88,0.88 -0.36,0.21333 -0.76,0.32 -1.2,0.32 h -10.38 V 15 Z m 2.4,-7 h 9.6 c 0.2134,0 0.3934,-0.07333 0.54,-0.22 0.16,-0.14667 0.24,-0.32667 0.24,-0.54 V 3.02 c 0,-0.21333 -0.08,-0.39333 -0.24,-0.54 C 77.279,2.32 77.099,2.24 76.8856,2.24 h -9.6 c -0.2133,0 -0.4,0.08 -0.56,0.24 -0.1466,0.14667 -0.22,0.32667 -0.22,0.54 v 4.22 c 0,0.21333 0.0734,0.39333 0.22,0.54 0.16,0.14667 0.3467,0.22 0.56,0.22 z m 14.3039,7 V 0.599999 h 1.64 V 15 Z m 9.7574,0 V 2.22 h -6.4 V 0.599999 h 14.4 V 2.22 h -6.38 V 15 Z m 15.6361,0 V 9.58 l -6.62,-8.980001 h 1.86 l 5.58,7.040001 5.52,-7.040001 h 1.9 L 108.603,9.58 V 15 Z M 3,34 C 2.46667,34 1.98,33.8733 1.54,33.62 1.11333,33.3533 0.766667,33.0067 0.5,32.58 0.246667,32.14 0.12,31.6533 0.12,31.12 V 22.48 C 0.12,21.9467 0.246667,21.4667 0.5,21.04 0.766667,20.6 1.11333,20.2533 1.54,20 1.98,19.7333 2.46667,19.6 3,19.6 h 8.62 c 0.5333,0 1.0133,0.1333 1.44,0.4 0.44,0.2533 0.7933,0.6 1.06,1.04 0.2667,0.4267 0.4,0.9067 0.4,1.44 v 1.24 H 11.6 v -1.1 c 0,-0.04 -0.0133,-0.0667 -0.04,-0.08 C 11.5467,22.5133 11.52,22.5 11.48,22.5 H 3.12 c -0.04,0 -0.07333,0.0133 -0.1,0.04 C 3.00667,22.5533 3,22.58 3,22.62 v 8.36 c 0,0.04 0.00667,0.0733 0.02,0.1 0.02667,0.0133 0.06,0.02 0.1,0.02 h 8.36 c 0.04,0 0.0667,-0.0067 0.08,-0.02 0.0267,-0.0267 0.04,-0.06 0.04,-0.1 V 28.62 H 8.42 v -2.9 h 6.1 v 5.4 c 0,0.5333 -0.1333,1.02 -0.4,1.46 -0.2667,0.4267 -0.62,0.7733 -1.06,1.04 C 12.6333,33.8733 12.1533,34 11.62,34 Z m 13.7416,0 V 19.58 h 2.88 V 31.1 h 11.52 V 34 Z m 18.4059,0 c -0.5333,0 -1.02,-0.1267 -1.46,-0.38 -0.4267,-0.2667 -0.7733,-0.6133 -1.04,-1.04 -0.2533,-0.44 -0.38,-0.9267 -0.38,-1.46 v -8.64 c 0,-0.5333 0.1267,-1.0133 0.38,-1.44 0.2667,-0.44 0.6133,-0.7867 1.04,-1.04 0.44,-0.2667 0.9267,-0.4 1.46,-0.4 h 8.64 c 0.52,0 0.9933,0.1333 1.42,0.4 0.44,0.2533 0.7933,0.6 1.06,1.04 0.2667,0.4267 0.4,0.9067 0.4,1.44 v 8.64 c 0,0.5333 -0.1333,1.02 -0.4,1.46 -0.2667,0.4267 -0.62,0.7733 -1.06,1.04 -0.4267,0.2533 -0.9,0.38 -1.42,0.38 z m 0.12,-2.9 h 8.36 c 0.04,0 0.0667,-0.0067 0.08,-0.02 0.0267,-0.0267 0.04,-0.06 0.04,-0.1 v -8.36 c 0,-0.04 -0.0133,-0.0667 -0.04,-0.08 -0.0133,-0.0267 -0.04,-0.04 -0.08,-0.04 h -8.36 c -0.04,0 -0.0733,0.0133 -0.1,0.04 -0.0133,0.0133 -0.02,0.04 -0.02,0.08 v 8.36 c 0,0.04 0.0067,0.0733 0.02,0.1 0.0267,0.0133 0.06,0.02 0.1,0.02 z M 48.93,34 V 19.6 h 10.96 c 0.52,0 0.9933,0.1333 1.42,0.4 0.44,0.2533 0.7933,0.6 1.06,1.04 0.2667,0.4267 0.4,0.9067 0.4,1.44 v 2.76 c 0,0.1733 -0.0133,0.34 -0.04,0.5 -0.0267,0.1467 -0.0667,0.2933 -0.12,0.44 0.2133,0.28 0.3867,0.5867 0.52,0.92 0.1333,0.32 0.2,0.6467 0.2,0.98 v 3.04 c 0,0.5333 -0.1333,1.02 -0.4,1.46 -0.2667,0.4267 -0.62,0.7733 -1.06,1.04 C 61.4433,33.8733 60.9633,34 60.43,34 Z m 3,-2.9 h 8.36 c 0.04,0 0.0667,-0.0067 0.08,-0.02 0.0267,-0.0267 0.04,-0.06 0.04,-0.1 v -2.74 c 0,-0.0267 -0.0133,-0.0533 -0.04,-0.08 -0.0133,-0.0267 -0.04,-0.04 -0.08,-0.04 h -8.36 c -0.04,0 -0.0733,0.0133 -0.1,0.04 -0.0133,0.0267 -0.02,0.0533 -0.02,0.08 v 2.74 c 0,0.04 0.0067,0.0733 0.02,0.1 0.0267,0.0133 0.06,0.02 0.1,0.02 z m 0,-5.88 h 7.8 c 0.0267,0 0.0533,-0.0067 0.08,-0.02 0.0267,-0.0267 0.04,-0.0533 0.04,-0.08 v -2.5 c 0,-0.04 -0.0133,-0.0667 -0.04,-0.08 -0.0267,-0.0267 -0.0533,-0.04 -0.08,-0.04 h -7.8 c -0.04,0 -0.0733,0.0133 -0.1,0.04 -0.0133,0.0133 -0.02,0.04 -0.02,0.08 v 2.5 c 0,0.0267 0.0067,0.0533 0.02,0.08 0.0267,0.0133 0.06,0.02 0.1,0.02 z M 65.5506,34 V 22.48 c 0,-0.5333 0.1267,-1.0133 0.38,-1.44 0.2667,-0.44 0.6134,-0.7867 1.04,-1.04 0.44,-0.2667 0.9267,-0.4 1.46,-0.4 h 8.62 c 0.5334,0 1.0134,0.1333 1.44,0.4 0.44,0.2533 0.7934,0.6 1.06,1.04 0.2667,0.4267 0.4,0.9067 0.4,1.44 V 34 h -2.92 v -4.74 h -8.6 V 34 Z m 2.88,-7.62 h 8.6 v -3.76 c 0,-0.04 -0.0133,-0.0667 -0.04,-0.08 -0.0133,-0.0267 -0.04,-0.04 -0.08,-0.04 h -8.36 c -0.04,0 -0.0733,0.0133 -0.1,0.04 -0.0133,0.0133 -0.02,0.04 -0.02,0.08 z M 82.2494,34 V 19.58 h 2.88 V 31.1 h 11.52 V 34 Z m 26.9146,0 V 22.5 h -5.76 v -2.9 h 14.4 v 2.9 h -5.74 V 34 Z m 10.176,0 V 19.6 h 13.28 v 2.9 h -10.36 v 2.84 h 8.34 v 2.92 h -8.34 v 2.84 h 10.36 V 34 Z m 18.152,0 c -0.533,0 -1.02,-0.1267 -1.46,-0.38 -0.426,-0.2667 -0.773,-0.6133 -1.04,-1.04 -0.253,-0.44 -0.38,-0.9267 -0.38,-1.46 v -8.64 c 0,-0.5333 0.127,-1.0133 0.38,-1.44 0.267,-0.44 0.614,-0.7867 1.04,-1.04 0.44,-0.2667 0.927,-0.4 1.46,-0.4 h 11.48 v 2.9 h -10.8 c -0.213,0 -0.38,0.06 -0.5,0.18 -0.12,0.1067 -0.18,0.2733 -0.18,0.5 v 7.24 c 0,0.2133 0.06,0.38 0.18,0.5 0.12,0.12 0.287,0.18 0.5,0.18 h 10.8 V 34 Z m 13.586,0 V 19.6 h 2.88 v 5.74 h 8.94 V 19.6 h 2.88 V 34 h -2.88 v -5.74 h -8.94 V 34 Z"
             fill="#0f0930"
             id="path2027"
             style="fill:#1a1a1a;fill-opacity:1" />
        </g>
      </g>
    </g>
  </g>
</svg>
