<?xml version="1.0" encoding="UTF-8" standalone="no"?>
<!-- Created with Inkscape (http://www.inkscape.org/) -->

<svg
   width="190.5mm"
   height="39.698051mm"
   viewBox="0 0 190.5 39.698051"
   version="1.1"
   id="svg1122"
   inkscape:version="1.2 (dc2aeda, 2022-05-15)"
   sodipodi:docname="segday-full-white.svg"
   inkscape:export-filename="segday-full-black.png"
   inkscape:export-xdpi="96"
   inkscape:export-ydpi="96"
   xmlns:inkscape="http://www.inkscape.org/namespaces/inkscape"
   xmlns:sodipodi="http://sodipodi.sourceforge.net/DTD/sodipodi-0.dtd"
   xmlns="http://www.w3.org/2000/svg"
   xmlns:svg="http://www.w3.org/2000/svg">
  <sodipodi:namedview
     id="namedview1124"
     pagecolor="#ffffff"
     bordercolor="#666666"
     borderopacity="1.0"
     inkscape:pageshadow="2"
     inkscape:pageopacity="0.0"
     inkscape:pagecheckerboard="0"
     inkscape:document-units="mm"
     showgrid="false"
     fit-margin-top="0"
     fit-margin-left="0"
     fit-margin-right="0"
     fit-margin-bottom="0"
     inkscape:zoom="0.70409546"
     inkscape:cx="371.3985"
     inkscape:cy="188.18471"
     inkscape:window-width="1440"
     inkscape:window-height="797"
     inkscape:window-x="0"
     inkscape:window-y="25"
     inkscape:window-maximized="1"
     inkscape:current-layer="layer1"
     inkscape:showpageshadow="2"
     inkscape:deskcolor="#d1d1d1"
     showguides="true" />
  <defs
     id="defs1119" />
  <g
     inkscape:label="Layer 1"
     inkscape:groupmode="layer"
     id="layer1"
     transform="translate(-9.8224627,-131.02478)">
    <g
       id="g1351"
       transform="translate(0.8550817,-2.4273682e-5)"
       style="fill:#ffffff">
      <path
         id="path19443"
         style="fill:#ffffff;fill-opacity:1;stroke-width:0.236679"
         d="m 46.192053,135.3761 c -8.559354,0 -15.498201,6.93885 -15.498201,15.4982 0,3.99427 1.511238,7.63581 3.992904,10.38376 0.176454,0.19536 0.253477,0.4584 0.253477,0.72178 0,1.56047 1.265183,2.8253 2.825752,2.8253 1.560533,0 2.825296,-1.26483 2.825296,-2.8253 0,-1.56063 -1.264763,-2.82571 -2.825296,-2.82571 -0.613913,0 -1.273691,-0.11869 -1.641443,-0.61024 -1.58203,-2.11461 -2.519023,-4.73965 -2.519023,-7.58378 0,-6.99878 5.673665,-12.67245 12.67245,-12.67245 0.150196,0 0.299692,0.002 0.448523,0.007 0.67077,0.0245 1.310066,-0.3396 1.566905,-0.95982 0.363517,-0.87761 -0.176454,-1.87016 -1.124685,-1.92916 -0.322799,-0.021 -0.648609,-0.0315 -0.976554,-0.0315 z m 8.982634,1.69879 c -1.560569,0 -2.825717,1.26518 -2.825717,2.82572 0,1.56056 1.265148,2.82575 2.825717,2.82575 0.414212,0 0.841553,0.11448 1.096711,0.44085 1.678519,2.14952 2.678916,4.85421 2.678916,7.7929 0,6.99882 -5.673664,12.67291 -12.67245,12.67291 v -4.6e-4 c -0.145644,0 -0.290939,-0.003 -0.435428,-0.007 -0.629493,-0.021 -1.227827,0.3221 -1.468876,0.90384 -0.347656,0.83899 0.180656,1.78446 1.087679,1.82658 0.242274,0.0105 0.485844,0.0175 0.730814,0.0175 8.559249,0 15.498201,-6.93846 15.498201,-15.49774 0,-3.60072 -1.228211,-6.91469 -3.288278,-9.54589 -0.311946,-0.39856 -0.401993,-0.92204 -0.401993,-1.42823 0,-1.56057 -1.264868,-2.82575 -2.825296,-2.82575 z m -6.027273,6.62305 c -0.517564,0.001 -0.990909,0.19116 -1.3546,0.5045 -0.457591,0.39405 -0.971128,0.80588 -1.575028,0.80763 -0.60383,0.002 -1.120134,-0.40717 -1.58,-0.79859 -0.365477,-0.3109 -0.839242,-0.49859 -1.356841,-0.49684 -1.151993,0.003 -2.083313,0.93979 -2.080022,2.09175 2.1e-4,0.0865 0.007,0.1719 0.0175,0.25558 0.0014,0.014 0.0028,0.028 0.0035,0.0403 0.07562,0.59904 0.135142,1.25461 -0.19676,1.75887 -0.332252,0.50423 -0.957789,0.7083 -1.537987,0.87537 -0.461336,0.1327 -0.879259,0.42496 -1.164001,0.85731 -0.63359,0.96206 -0.367228,2.25536 0.594867,2.88895 0.962095,0.63359 2.255356,0.36723 2.888981,-0.59487 0.284637,-0.43228 0.388059,-0.93125 0.32805,-1.40743 -0.07562,-0.59907 -0.135141,-1.25458 0.19676,-1.75887 0.332252,-0.50433 0.957754,-0.70869 1.537987,-0.87583 0.393451,-0.11308 0.755216,-0.3424 1.029841,-0.67571 0.392785,-0.31719 0.827653,-0.59402 1.322985,-0.59577 0.60383,-0.002 1.120134,0.40724 1.58,0.79859 0.365477,0.31125 0.839242,0.49859 1.356841,0.49684 1.151958,-0.003 2.083348,-0.94021 2.080022,-2.09221 -0.0033,-1.15199 -0.939758,-2.08303 -2.091751,-2.07953 z m 3.003711,5.78066 c -0.303543,0.007 -0.610132,0.0819 -0.898411,0.23002 -1.025044,0.52575 -1.429978,1.78267 -0.904257,2.80768 0.525721,1.02505 1.783062,1.42998 2.808106,0.9043 1.025079,-0.52576 1.429558,-1.78314 0.903837,-2.80815 -0.377871,-0.73673 -1.133472,-1.15304 -1.909275,-1.13371 z m -2.972972,4.90934 c -0.517598,0.002 -0.990908,0.19116 -1.354635,0.50454 -0.457555,0.39398 -0.971198,0.80588 -1.574993,0.80759 -0.60383,0.002 -1.119713,-0.40721 -1.579544,-0.79856 -0.365512,-0.31124 -0.839732,-0.49834 -1.357331,-0.49687 -1.151958,0.004 -2.083314,0.9398 -2.079988,2.09175 0.0033,1.15203 0.939758,2.08332 2.091751,2.08003 0.517669,-0.002 0.990839,-0.19116 1.354601,-0.50454 0.457485,-0.39401 0.971232,-0.80585 1.575028,-0.8076 0.603795,-0.002 1.119748,0.40718 1.579509,0.79856 0.365547,0.31125 0.839662,0.49835 1.357331,0.49688 1.151958,-0.004 2.083314,-0.94022 2.079988,-2.09221 -0.0033,-1.15199 -0.939724,-2.08286 -2.091717,-2.07957 z" />
      <path
         d="m 74.613476,158.80081 q -0.836737,0 -1.541358,-0.41837 -0.682601,-0.41837 -1.10097,-1.10097 -0.418368,-0.70462 -0.418368,-1.54135 v -1.21107 h 2.90656 v 1.07895 q 0,0.1101 0.06606,0.19817 0.08808,0.0661 0.198175,0.0661 h 9.490361 q 0.110097,0 0.176156,-0.0661 0.08808,-0.0881 0.08808,-0.19817 v -3.01666 q 0,-0.1101 -0.08808,-0.17615 -0.06606,-0.0661 -0.176156,-0.0661 h -9.600458 q -0.836737,0 -1.541358,-0.41837 -0.682601,-0.41837 -1.10097,-1.10097 -0.418368,-0.70462 -0.418368,-1.56338 v -3.25887 q 0,-0.83674 0.418368,-1.51934 0.418369,-0.70462 1.10097,-1.12299 0.704621,-0.41837 1.541358,-0.41837 h 9.732575 q 0.836737,0 1.519338,0.41837 0.704621,0.41837 1.12299,1.12299 0.418368,0.6826 0.418368,1.51934 v 1.21107 h -2.92858 v -1.07895 q 0,-0.1101 -0.08808,-0.17616 -0.06606,-0.0881 -0.176156,-0.0881 h -9.490361 q -0.110097,0 -0.198175,0.0881 -0.06606,0.0661 -0.06606,0.17616 v 3.01665 q 0,0.1101 0.06606,0.17616 0.08808,0.0661 0.198175,0.0661 h 9.622478 q 0.836737,0 1.519338,0.41837 0.704621,0.41837 1.12299,1.12299 0.418368,0.6826 0.418368,1.54135 v 3.25888 q 0,0.83673 -0.418368,1.54135 -0.418369,0.6826 -1.12299,1.10097 -0.682601,0.41837 -1.519338,0.41837 z"
         id="path660"
         style="font-weight:bold;font-size:22.0194px;font-family:Orbitron;-inkscape-font-specification:'Orbitron Bold';text-align:end;text-anchor:end;stroke-width:0.968543;fill:#ffffff" />
      <path
         d="m 89.850863,158.80081 v -15.85397 h 14.598857 v 2.92858 H 92.779443 v 3.52311 h 9.380267 v 2.9506 h -9.380267 v 3.5231 h 11.670277 v 2.92858 z"
         id="path662"
         style="font-weight:bold;font-size:22.0194px;font-family:Orbitron;-inkscape-font-specification:'Orbitron Bold';text-align:end;text-anchor:end;stroke-width:0.968543;fill:#ffffff" />
      <path
         id="path664"
         style="font-weight:bold;font-size:22.0194px;font-family:Orbitron;-inkscape-font-specification:'Orbitron Bold';text-align:end;text-anchor:end;stroke-width:0.968543;fill:#ffffff"
         d="m 109.73419,142.94705 c -0.55782,0 -1.07124,0.13915 -1.54099,0.41806 -0.45506,0.27892 -0.82231,0.65318 -1.10122,1.12293 -0.27892,0.45507 -0.41806,0.96146 -0.41806,1.51929 v 9.73274 c 0,0.55782 0.13914,1.07176 0.41806,1.54151 0.27891,0.45506 0.64616,0.82179 1.10122,1.1007 0.46975,0.27892 0.98317,0.41858 1.54099,0.41858 h 9.71052 c 0.55783,0 1.07176,-0.13966 1.54151,-0.41858 0.46975,-0.27891 0.84402,-0.64564 1.12293,-1.1007 0.27891,-0.46975 0.41858,-0.98369 0.41858,-1.54151 v -5.92316 h -8.10545 v 2.92851 h 5.17694 v 2.86236 c 0,0.0734 -0.0296,0.1397 -0.0884,0.19843 -0.0587,0.0441 -0.12452,0.0661 -0.19792,0.0661 h -9.46868 c -0.0734,0 -0.13918,-0.0221 -0.19792,-0.0661 -0.0441,-0.0587 -0.0661,-0.12503 -0.0661,-0.19843 v -9.46816 c 0,-0.0734 0.0221,-0.13215 0.0661,-0.17622 0.0587,-0.0587 0.12453,-0.0879 0.19792,-0.0879 h 9.46868 c 0.0734,0 0.13918,0.0291 0.19792,0.0879 0.0587,0.044 0.0884,0.10282 0.0884,0.17622 v 2.15955 h 2.92851 v -2.29184 c 0,-0.55783 -0.13967,-1.06422 -0.41858,-1.51929 -0.27891,-0.46975 -0.65318,-0.84401 -1.12293,-1.12293 -0.46975,-0.27891 -0.98368,-0.41806 -1.54151,-0.41806 z"
         sodipodi:nodetypes="sccssccssscsccccscsscssssscsccscsss" />
      <path
         d="m 124.9938,158.80081 v -15.85397 h 12.77125 q 0.83674,0 1.54136,0.41837 0.70462,0.41837 1.12299,1.12299 0.41837,0.6826 0.41837,1.51934 v 9.73258 q 0,0.83673 -0.41837,1.54135 -0.41837,0.6826 -1.12299,1.10097 -0.70462,0.41837 -1.54136,0.41837 z m 3.14877,-2.92858 h 9.49036 q 0.1101,0 0.19818,-0.0661 0.0881,-0.0881 0.0881,-0.19817 v -9.46834 q 0,-0.1101 -0.0881,-0.17616 -0.0881,-0.0881 -0.19818,-0.0881 h -9.49036 q -0.1101,0 -0.19817,0.0881 -0.0661,0.0661 -0.0661,0.17616 v 9.46834 q 0,0.1101 0.0661,0.19817 0.0881,0.0661 0.19817,0.0661 z"
         id="path666"
         style="font-weight:bold;font-size:22.0194px;font-family:Orbitron;-inkscape-font-specification:'Orbitron Bold';text-align:end;text-anchor:end;stroke-width:0.968543;fill:#ffffff" />
      <path
         d="m 143.35797,158.80081 v -12.79327 q 0,-0.83674 0.41837,-1.51934 0.41836,-0.70462 1.10097,-1.12299 0.70462,-0.41837 1.54135,-0.41837 h 9.71056 q 0.83674,0 1.54136,0.41837 0.70462,0.41837 1.12299,1.12299 0.41837,0.6826 0.41837,1.51934 v 12.79327 h -2.92858 v -5.32869 h -10.01883 v 5.32869 z m 2.90656,-8.23525 h 10.01883 v -4.4259 q 0,-0.1101 -0.0881,-0.17616 -0.0881,-0.0881 -0.19818,-0.0881 h -9.46834 q -0.1101,0 -0.19817,0.0881 -0.0661,0.0661 -0.0661,0.17616 v 4.4259 z"
         id="path668"
         style="font-weight:bold;font-size:22.0194px;font-family:Orbitron;-inkscape-font-specification:'Orbitron Bold';text-align:end;text-anchor:end;stroke-width:0.968543;fill:#ffffff" />
      <path
         d="m 167.47987,158.80081 v 0 -5.94524 l -7.31044,-9.90873 h 3.43503 l 5.35071,6.71592 5.28466,-6.71592 h 3.50108 l -7.33246,9.93075 v 5.92322 z"
         id="path670"
         style="font-weight:bold;font-size:22.0194px;font-family:Orbitron;-inkscape-font-specification:'Orbitron Bold';text-align:end;text-anchor:end;stroke-width:0.968543;fill:#ffffff" />
    </g>
  </g>
</svg>
